<svg id="svg" version="1.1" xmlns="http://www.w3.org/2000/svg" xmlns:xlink="http://www.w3.org/1999/xlink" width="400" height="400" viewBox="0, 0, 400,400"><g id="svgg"><path id="path0" d="M224.281 207.852 C 223.652 208.482,223.963 245.396,224.614 247.238 C 225.883 250.837,228.037 252.159,232.667 252.183 C 236.639 252.204,236.519 252.316,236.181 248.885 L 235.906 246.093 234.304 245.878 C 231.693 245.528,231.818 246.435,231.600 226.280 L 231.400 207.800 227.981 207.686 C 226.101 207.623,224.436 207.698,224.281 207.852 M87.397 210.900 C 87.277 211.395,87.228 220.800,87.289 231.800 L 87.400 251.800 100.800 251.800 L 114.200 251.800 114.200 248.600 L 114.200 245.400 105.232 245.292 C 99.437 245.222,96.075 245.028,95.732 244.743 C 95.305 244.389,95.200 240.927,95.200 227.151 L 95.200 210.000 91.408 210.000 C 87.806 210.000,87.604 210.045,87.397 210.900 M264.611 210.667 C 262.710 211.709,258.320 213.442,256.838 213.735 C 254.648 214.169,254.400 214.587,254.400 217.849 L 254.400 220.800 255.672 220.800 C 256.988 220.800,258.463 220.402,261.669 219.182 C 264.169 218.230,264.000 217.294,264.000 232.067 L 264.000 245.200 259.500 245.206 C 253.840 245.214,253.934 245.151,254.081 248.835 L 254.200 251.800 267.600 251.800 L 281.000 251.800 281.117 248.712 C 281.254 245.083,281.512 245.258,275.800 245.100 L 272.200 245.000 272.000 227.600 L 271.800 210.200 268.800 210.108 C 266.639 210.041,265.467 210.198,264.611 210.667 M288.183 210.427 C 287.904 210.879,288.185 224.373,288.655 233.115 L 288.898 237.631 292.149 237.515 L 295.400 237.400 295.699 228.800 C 295.864 224.070,295.954 217.950,295.899 215.200 L 295.800 210.200 292.133 210.085 C 289.702 210.009,288.370 210.125,288.183 210.427 M129.200 220.481 C 128.650 220.716,127.596 221.172,126.859 221.493 C 116.547 225.983,116.506 246.020,126.800 250.668 C 129.770 252.009,130.804 252.199,135.000 252.176 C 140.140 252.147,142.859 251.159,145.332 248.423 C 148.085 245.376,147.988 245.022,143.742 242.596 L 142.485 241.877 140.942 243.497 C 136.290 248.383,127.200 245.575,127.200 239.252 L 127.200 237.614 137.500 237.507 L 147.800 237.400 147.921 234.200 C 148.103 229.389,147.081 226.225,144.456 223.475 C 143.104 222.058,142.476 221.677,139.481 220.456 C 138.084 219.887,130.549 219.905,129.200 220.481 M198.000 220.481 C 197.450 220.716,196.396 221.172,195.659 221.493 C 185.347 225.983,185.306 246.020,195.600 250.668 C 198.570 252.009,199.604 252.199,203.800 252.176 C 208.940 252.147,211.659 251.159,214.132 248.423 C 216.885 245.376,216.788 245.022,212.542 242.596 L 211.285 241.877 209.742 243.497 C 205.090 248.383,196.000 245.575,196.000 239.252 L 196.000 237.614 206.300 237.507 L 216.600 237.400 216.721 234.200 C 216.903 229.389,215.881 226.225,213.256 223.475 C 211.904 222.058,211.276 221.677,208.281 220.456 C 206.884 219.887,199.349 219.905,198.000 220.481 M152.000 221.102 C 152.000 221.488,152.468 223.063,153.040 224.602 C 153.612 226.141,154.412 228.300,154.818 229.400 C 155.622 231.583,157.400 236.388,159.259 241.400 C 159.912 243.160,160.785 245.555,161.200 246.721 C 161.615 247.888,162.280 249.508,162.677 250.321 L 163.400 251.800 167.640 251.913 C 172.376 252.039,172.361 252.046,173.318 249.200 C 173.651 248.210,174.408 246.140,175.000 244.600 C 175.592 243.060,176.420 240.855,176.838 239.700 C 178.540 235.008,179.294 232.960,179.600 232.200 C 179.777 231.760,180.300 230.365,180.761 229.100 C 181.222 227.835,181.954 225.855,182.386 224.700 C 182.818 223.545,183.287 222.105,183.429 221.500 L 183.687 220.400 180.057 220.400 C 175.652 220.400,176.562 219.044,172.000 232.400 C 167.734 244.891,167.831 244.790,165.848 238.800 C 165.521 237.810,164.330 234.390,163.203 231.200 C 162.075 228.010,160.862 224.500,160.506 223.400 C 159.540 220.407,159.528 220.400,155.551 220.400 C 152.432 220.400,152.000 220.485,152.000 221.102 M137.081 226.091 C 138.612 226.762,139.812 228.194,140.350 229.989 C 141.236 232.947,141.567 232.800,134.000 232.800 C 126.219 232.800,126.282 232.838,128.132 229.221 C 129.680 226.194,133.929 224.708,137.081 226.091 M205.881 226.091 C 207.412 226.762,208.612 228.194,209.150 229.989 C 210.036 232.947,210.367 232.800,202.800 232.800 C 195.019 232.800,195.082 232.838,196.932 229.221 C 198.480 226.194,202.729 224.708,205.881 226.091 M288.865 244.339 C 285.656 247.337,287.614 252.000,292.082 252.000 C 294.822 252.000,296.800 250.155,296.800 247.600 C 296.800 243.708,291.759 241.636,288.865 244.339 M125.386 294.893 C 125.271 295.192,125.227 298.039,125.289 301.218 C 125.414 307.708,126.077 308.956,126.400 303.308 C 126.594 299.915,126.636 299.790,127.767 299.250 C 130.260 298.058,130.972 298.879,131.200 303.208 C 131.453 308.004,132.200 307.933,132.200 303.113 C 132.200 300.338,132.059 299.485,131.506 298.934 C 130.732 298.161,128.188 298.052,127.478 298.762 C 126.648 299.592,126.400 299.194,126.400 297.024 C 126.400 294.944,125.827 293.742,125.386 294.893 M230.262 295.131 C 229.898 295.534,229.600 296.349,229.600 296.944 C 229.600 297.539,229.330 298.129,229.000 298.255 C 228.670 298.382,228.400 298.646,228.400 298.843 C 228.400 299.039,228.670 299.200,229.000 299.200 C 229.491 299.200,229.600 299.889,229.600 303.000 C 229.600 307.914,230.333 307.997,230.485 303.100 L 230.600 299.400 232.000 298.942 L 233.400 298.483 232.240 298.342 C 229.635 298.023,229.888 295.501,232.549 295.275 C 234.334 295.124,234.077 294.400,232.238 294.400 C 231.473 294.400,230.647 294.706,230.262 295.131 M251.456 294.678 C 251.315 294.818,251.200 297.395,251.200 300.405 C 251.200 306.310,251.695 307.741,253.485 307.002 C 254.078 306.757,254.097 306.670,253.600 306.493 C 252.531 306.113,252.412 305.480,252.406 300.124 C 252.401 295.314,252.166 293.968,251.456 294.678 M246.400 300.609 L 246.400 306.417 247.402 306.874 C 248.711 307.470,249.202 306.957,248.076 306.168 C 247.249 305.589,247.200 305.256,247.200 300.177 C 247.200 296.859,247.047 294.800,246.800 294.800 C 246.552 294.800,246.400 297.003,246.400 300.609 M88.800 295.521 C 88.800 295.734,89.609 297.324,90.597 299.054 C 92.151 301.775,92.394 302.511,92.397 304.500 C 92.399 306.276,92.537 306.800,93.000 306.800 C 93.463 306.800,93.600 306.282,93.600 304.539 C 93.600 302.589,93.847 301.850,95.400 299.158 C 96.390 297.442,97.200 295.849,97.200 295.619 C 97.200 294.821,96.456 295.205,95.881 296.300 C 93.118 301.562,93.186 301.538,91.126 297.975 C 89.753 295.601,88.800 294.595,88.800 295.521 M171.014 295.578 C 170.870 295.810,170.425 296.000,170.025 296.000 C 169.625 296.000,169.076 296.267,168.806 296.593 C 168.384 297.102,168.533 297.173,169.857 297.093 L 171.400 297.000 171.514 301.142 C 171.641 305.719,171.386 306.400,169.551 306.400 C 168.918 306.400,168.400 306.580,168.400 306.800 C 168.400 307.311,175.069 307.336,175.384 306.826 C 175.511 306.620,175.027 306.395,174.308 306.326 L 173.000 306.200 172.800 300.805 C 172.603 295.490,172.056 293.891,171.014 295.578 M205.100 295.895 C 203.204 296.670,203.152 297.320,205.013 296.971 L 206.426 296.706 206.313 301.453 L 206.200 306.200 204.692 306.325 C 203.862 306.393,203.288 306.618,203.415 306.825 C 203.727 307.329,209.887 307.307,210.200 306.800 C 210.339 306.575,210.020 306.400,209.473 306.400 C 207.883 306.400,207.632 305.635,207.513 300.407 C 207.390 295.034,207.357 294.973,205.100 295.895 M214.887 295.824 C 209.796 299.390,213.812 309.386,219.213 306.593 C 223.585 304.332,221.972 295.200,217.200 295.200 C 216.418 295.200,215.377 295.481,214.887 295.824 M182.667 296.267 C 182.520 296.413,182.400 296.854,182.400 297.247 C 182.400 297.639,182.110 298.122,181.756 298.321 C 181.165 298.652,181.165 298.701,181.756 298.928 C 182.263 299.122,182.400 299.770,182.400 301.969 C 182.400 306.123,183.686 307.963,185.899 306.973 C 186.494 306.707,186.449 306.635,185.600 306.501 C 183.264 306.132,182.467 299.465,184.700 298.973 C 186.534 298.568,186.656 298.465,185.339 298.432 C 184.311 298.406,184.001 298.179,183.660 297.200 C 183.221 295.942,183.103 295.831,182.667 296.267 M219.083 296.603 C 221.206 298.090,221.112 303.867,218.936 305.579 C 217.518 306.694,216.550 306.611,215.199 305.260 C 211.479 301.540,214.983 293.731,219.083 296.603 M102.200 298.284 C 97.770 299.384,98.958 307.200,103.555 307.200 C 108.280 307.200,108.869 299.043,104.200 298.281 C 103.540 298.173,102.640 298.175,102.200 298.284 M137.329 298.265 C 136.850 298.366,136.243 298.707,135.980 299.024 C 135.402 299.721,135.895 299.772,137.458 299.178 C 138.814 298.662,140.225 298.966,140.563 299.847 C 140.920 300.778,140.265 301.395,138.305 301.975 C 136.098 302.627,135.200 303.456,135.200 304.839 C 135.200 306.841,138.089 307.967,139.635 306.569 C 140.271 305.993,140.424 305.997,141.379 306.623 C 142.635 307.446,143.193 307.098,142.264 306.071 C 141.769 305.523,141.600 304.570,141.600 302.317 C 141.600 298.612,140.525 297.592,137.329 298.265 M157.400 298.332 C 155.295 299.037,154.400 300.308,154.400 302.594 C 154.400 306.330,158.060 308.520,160.794 306.418 C 162.021 305.476,161.603 304.873,160.337 305.759 C 158.699 306.906,156.245 306.229,155.814 304.512 C 155.399 302.858,156.218 302.340,159.045 302.467 C 161.949 302.597,162.167 302.472,161.815 300.870 C 161.377 298.874,159.317 297.690,157.400 298.332 M191.308 298.278 C 188.602 298.811,187.769 303.916,190.042 306.040 C 192.092 307.954,194.955 307.442,196.144 304.948 C 197.981 301.096,195.358 297.479,191.308 298.278 M238.200 298.336 C 236.101 299.029,235.200 300.307,235.200 302.594 C 235.200 306.633,239.160 308.653,241.958 306.040 C 245.197 303.014,242.261 296.995,238.200 298.336 M258.508 298.278 C 255.802 298.811,254.969 303.916,257.242 306.040 C 259.292 307.954,262.155 307.442,263.344 304.948 C 265.181 301.096,262.558 297.479,258.508 298.278 M282.146 298.436 C 279.119 299.313,278.747 305.125,281.624 306.612 C 283.224 307.440,284.896 307.343,285.951 306.360 C 287.070 305.317,286.777 304.891,285.537 305.759 C 283.730 307.025,280.800 305.806,280.800 303.789 C 280.800 302.686,282.184 302.273,285.185 302.478 C 287.916 302.665,287.849 299.383,285.103 298.426 C 283.724 297.945,283.839 297.945,282.146 298.436 M110.400 301.746 C 110.400 304.525,110.540 305.271,111.229 306.146 C 112.077 307.225,114.096 307.616,114.600 306.800 C 114.737 306.578,114.436 306.397,113.924 306.394 C 111.932 306.381,111.200 304.992,111.200 301.226 C 111.200 299.609,111.029 298.400,110.800 298.400 C 110.565 298.400,110.400 299.782,110.400 301.746 M116.622 298.875 C 116.528 299.164,116.386 300.738,116.308 302.372 C 116.219 304.226,115.984 305.405,115.683 305.506 C 115.417 305.594,115.200 305.851,115.200 306.076 C 115.200 306.301,115.470 306.382,115.800 306.255 C 116.130 306.129,116.400 306.199,116.400 306.413 C 116.400 306.626,116.670 306.800,117.000 306.800 C 117.493 306.800,117.600 306.092,117.600 302.824 C 117.600 299.293,117.120 297.355,116.622 298.875 M144.646 299.441 C 145.943 304.609,148.296 308.184,149.226 306.400 C 149.853 305.196,152.004 299.386,152.002 298.900 C 151.998 298.004,151.307 298.374,150.881 299.500 C 150.652 300.105,150.046 301.725,149.535 303.100 C 148.354 306.273,148.353 306.272,146.690 302.116 C 145.335 298.730,144.043 297.040,144.646 299.441 M266.000 298.612 C 266.000 300.780,268.214 307.329,268.873 307.109 C 269.265 306.978,269.476 306.430,270.806 302.100 C 271.590 299.546,271.917 299.857,273.226 304.400 C 274.307 308.155,275.261 307.921,276.195 303.673 C 276.567 301.983,277.029 300.201,277.221 299.714 C 277.432 299.179,277.417 298.734,277.184 298.590 C 276.794 298.349,276.000 299.977,276.000 301.020 C 276.000 301.983,275.050 305.200,274.766 305.200 C 274.428 305.200,273.820 303.659,272.983 300.677 C 271.938 296.961,270.775 298.037,269.715 303.700 C 269.394 305.416,268.164 305.152,267.855 303.300 C 267.247 299.650,266.966 298.655,266.499 298.500 C 266.224 298.408,266.000 298.459,266.000 298.612 M290.086 302.700 C 290.221 307.806,290.944 308.382,291.117 303.523 C 291.248 299.862,291.575 299.200,293.249 299.200 C 293.882 299.200,294.400 299.020,294.400 298.800 C 294.400 298.240,292.660 298.300,292.080 298.880 C 291.707 299.253,291.493 299.253,291.120 298.880 C 290.139 297.899,289.976 298.502,290.086 302.700 M105.700 300.061 C 106.735 301.284,106.640 304.293,105.530 305.474 C 103.030 308.136,99.621 304.964,100.722 301.000 C 101.336 298.790,104.172 298.255,105.700 300.061 M159.934 299.439 C 161.738 300.702,160.947 301.800,158.233 301.800 C 155.487 301.800,155.064 301.300,156.552 299.811 C 157.721 298.642,158.650 298.540,159.934 299.439 M194.900 300.061 C 195.987 301.346,195.837 304.199,194.618 305.418 C 191.787 308.249,188.226 304.217,190.195 300.411 C 191.125 298.611,193.522 298.433,194.900 300.061 M240.316 299.056 C 242.031 299.516,242.950 302.620,241.935 304.526 C 239.822 308.493,235.124 305.580,236.554 301.190 C 237.137 299.400,238.569 298.588,240.316 299.056 M262.100 300.061 C 263.187 301.346,263.037 304.199,261.818 305.418 C 258.987 308.249,255.426 304.217,257.395 300.411 C 258.325 298.611,260.722 298.433,262.100 300.061 M285.682 299.706 C 286.553 301.041,285.858 301.797,283.643 301.923 C 281.072 302.069,280.435 301.629,281.186 300.226 C 281.965 298.771,284.855 298.437,285.682 299.706 M140.800 303.511 C 140.800 305.991,137.910 307.482,136.557 305.700 C 135.729 304.610,135.895 304.052,137.300 303.196 C 139.288 301.983,140.800 302.120,140.800 303.511 " stroke="none" fill="#0d0d0d" fill-rule="evenodd"></path><path id="path1" d="M173.800 43.988 C 162.212 44.193,161.745 44.232,160.200 45.119 C 158.711 45.973,156.800 48.264,156.800 49.194 C 156.800 49.456,153.769 49.600,148.271 49.600 C 136.967 49.600,134.838 50.395,132.212 55.600 C 130.324 59.342,130.180 62.520,131.579 69.600 C 131.775 70.590,132.141 72.570,132.394 74.000 C 132.647 75.430,133.009 77.320,133.200 78.200 C 133.391 79.080,133.751 80.970,134.000 82.400 C 134.249 83.830,134.609 85.720,134.800 86.600 C 134.991 87.480,135.351 89.370,135.600 90.800 C 135.849 92.230,136.207 94.120,136.394 95.000 C 136.582 95.880,136.960 97.680,137.235 99.000 C 138.189 103.581,140.877 106.996,145.199 109.119 L 147.400 110.200 159.509 110.317 L 171.617 110.433 174.109 113.517 C 175.479 115.212,177.725 117.784,179.100 119.232 C 182.096 122.386,182.023 121.701,180.328 130.800 C 179.703 134.154,177.670 140.363,176.464 142.600 L 175.385 144.600 191.292 144.600 C 200.041 144.600,207.200 144.496,207.200 144.368 C 207.200 144.240,206.765 143.277,206.234 142.228 C 204.156 138.122,201.600 128.292,201.600 124.402 C 201.600 122.522,201.691 122.373,204.702 119.332 C 206.409 117.610,208.832 114.905,210.086 113.322 L 212.368 110.443 224.484 110.322 C 238.368 110.182,238.391 110.177,242.513 106.410 C 245.583 103.604,246.154 102.214,247.565 94.100 C 247.804 92.725,248.196 90.475,248.435 89.100 C 249.077 85.407,249.601 82.451,250.011 80.200 C 250.212 79.100,250.577 76.940,250.824 75.400 C 251.071 73.860,251.421 71.880,251.603 71.000 C 253.612 61.265,252.806 56.349,248.521 52.202 C 246.142 49.900,244.612 49.600,235.262 49.600 L 227.335 49.600 226.768 48.500 C 224.157 43.440,220.853 43.159,173.800 43.988 M154.896 66.400 C 155.058 69.810,155.373 73.122,155.596 73.760 C 155.818 74.398,156.000 75.313,156.000 75.794 C 156.000 76.274,156.363 77.823,156.806 79.234 C 157.249 80.645,157.821 82.520,158.078 83.400 C 158.334 84.280,158.654 85.180,158.789 85.400 C 158.923 85.620,159.276 86.520,159.573 87.400 C 160.125 89.037,161.358 91.826,163.838 97.054 C 165.628 100.824,165.650 100.802,160.076 100.790 C 152.567 100.775,150.781 100.062,149.118 96.417 C 148.275 94.569,147.763 92.629,146.028 84.700 C 145.823 83.765,145.451 82.100,145.200 81.000 C 144.616 78.437,144.183 76.396,143.589 73.400 C 143.328 72.080,142.953 70.478,142.757 69.840 C 142.206 68.049,142.334 64.255,143.000 62.662 C 143.938 60.417,145.104 60.004,150.200 60.109 L 154.600 60.200 154.896 66.400 M238.413 60.607 C 240.590 61.733,241.450 65.535,240.435 69.554 C 240.234 70.349,239.865 71.990,239.615 73.200 C 239.365 74.410,239.007 76.120,238.819 77.000 C 238.632 77.880,238.272 79.590,238.019 80.800 C 237.767 82.010,237.404 83.720,237.213 84.600 C 237.022 85.480,236.644 87.280,236.373 88.600 C 234.111 99.632,232.869 100.800,223.404 100.800 C 218.549 100.800,218.447 100.716,219.783 97.811 C 220.342 96.595,221.234 94.655,221.765 93.500 C 224.411 87.744,226.586 81.515,227.597 76.800 C 227.857 75.590,228.240 73.930,228.448 73.111 C 228.655 72.292,228.848 69.142,228.876 66.111 C 228.903 63.080,228.998 60.465,229.086 60.300 C 229.402 59.711,237.175 59.966,238.413 60.607 " stroke="none" fill="#fbc144" fill-rule="evenodd"></path><path id="path2" d="M0.000 200.000 L 0.000 400.000 200.000 400.000 L 400.000 400.000 400.000 200.000 L 400.000 0.000 200.000 0.000 L 0.000 0.000 0.000 200.000 M218.843 43.967 C 222.950 44.497,225.436 45.919,226.768 48.500 L 227.335 49.600 235.262 49.600 C 244.612 49.600,246.142 49.900,248.521 52.202 C 252.806 56.349,253.612 61.265,251.603 71.000 C 251.421 71.880,251.071 73.860,250.824 75.400 C 250.577 76.940,250.212 79.100,250.011 80.200 C 249.601 82.451,249.077 85.407,248.435 89.100 C 248.196 90.475,247.804 92.725,247.565 94.100 C 246.154 102.214,245.583 103.604,242.513 106.410 C 238.391 110.177,238.368 110.182,224.484 110.322 L 212.368 110.443 210.086 113.322 C 208.832 114.905,206.409 117.610,204.702 119.332 C 201.691 122.373,201.600 122.522,201.600 124.402 C 201.600 128.280,203.875 137.125,206.087 141.848 L 207.234 144.297 212.692 144.482 L 218.150 144.667 219.843 146.536 C 221.502 148.369,222.400 150.786,222.400 153.420 C 222.400 154.276,222.580 154.400,223.820 154.400 C 228.075 154.400,230.963 161.440,227.746 163.971 C 226.329 165.086,158.526 165.299,156.392 164.196 C 152.157 162.006,154.791 154.400,159.784 154.400 C 160.686 154.400,160.800 154.236,160.800 152.946 C 160.800 147.329,163.869 144.815,171.122 144.489 L 175.644 144.286 176.609 142.383 C 177.751 140.129,179.750 133.903,180.328 130.800 C 182.023 121.701,182.096 122.386,179.100 119.232 C 177.725 117.784,175.479 115.212,174.109 113.517 L 171.617 110.433 159.509 110.317 L 147.400 110.200 145.199 109.119 C 140.877 106.996,138.189 103.581,137.235 99.000 C 136.960 97.680,136.582 95.880,136.394 95.000 C 136.207 94.120,135.849 92.230,135.600 90.800 C 135.351 89.370,134.991 87.480,134.800 86.600 C 134.609 85.720,134.249 83.830,134.000 82.400 C 133.751 80.970,133.391 79.080,133.200 78.200 C 133.009 77.320,132.647 75.430,132.394 74.000 C 132.141 72.570,131.775 70.590,131.579 69.600 C 130.180 62.520,130.324 59.342,132.212 55.600 C 134.838 50.395,136.967 49.600,148.271 49.600 C 153.769 49.600,156.800 49.456,156.800 49.194 C 156.800 48.264,158.711 45.973,160.200 45.119 C 161.745 44.232,162.212 44.193,173.800 43.988 C 194.538 43.623,216.095 43.613,218.843 43.967 M144.700 60.622 C 142.717 61.710,141.716 66.458,142.757 69.840 C 142.953 70.478,143.328 72.080,143.589 73.400 C 144.183 76.396,144.616 78.437,145.200 81.000 C 145.451 82.100,145.823 83.765,146.028 84.700 C 149.462 100.394,149.790 100.769,160.076 100.790 C 165.650 100.802,165.628 100.824,163.838 97.054 C 161.358 91.826,160.125 89.037,159.573 87.400 C 159.276 86.520,158.923 85.620,158.789 85.400 C 158.654 85.180,158.334 84.280,158.078 83.400 C 157.821 82.520,157.249 80.645,156.806 79.234 C 156.363 77.823,156.000 76.274,156.000 75.794 C 156.000 75.313,155.818 74.398,155.596 73.760 C 155.373 73.122,155.058 69.810,154.896 66.400 L 154.600 60.200 150.200 60.109 C 146.894 60.041,145.527 60.168,144.700 60.622 M229.086 60.300 C 228.998 60.465,228.903 63.080,228.876 66.111 C 228.848 69.142,228.655 72.292,228.448 73.111 C 228.240 73.930,227.857 75.590,227.597 76.800 C 226.586 81.515,224.411 87.744,221.765 93.500 C 221.234 94.655,220.342 96.595,219.783 97.811 C 218.447 100.716,218.549 100.800,223.404 100.800 C 232.869 100.800,234.111 99.632,236.373 88.600 C 236.644 87.280,237.022 85.480,237.213 84.600 C 237.404 83.720,237.767 82.010,238.019 80.800 C 238.272 79.590,238.632 77.880,238.819 77.000 C 239.007 76.120,239.365 74.410,239.615 73.200 C 239.865 71.990,240.234 70.349,240.435 69.554 C 241.450 65.535,240.590 61.733,238.413 60.607 C 237.175 59.966,229.402 59.711,229.086 60.300 M232.085 225.780 C 232.210 245.943,232.113 245.180,234.561 245.374 C 236.447 245.524,236.412 245.474,236.802 248.620 C 237.298 252.613,237.108 252.792,232.400 252.786 C 228.100 252.780,225.092 250.823,223.950 247.288 C 223.428 245.670,222.923 211.004,223.386 208.536 L 223.636 207.200 227.803 207.200 L 231.970 207.200 232.085 225.780 M96.096 227.100 L 96.200 244.600 105.515 244.707 L 114.830 244.815 114.715 248.507 L 114.600 252.200 101.248 252.305 C 91.727 252.381,87.738 252.281,87.348 251.956 C 86.777 251.483,86.487 211.682,87.043 210.233 C 87.244 209.709,88.038 209.600,91.639 209.600 L 95.992 209.600 96.096 227.100 M272.489 209.700 C 272.538 209.755,272.673 217.630,272.789 227.200 L 273.000 244.600 277.300 244.714 L 281.600 244.827 281.600 248.406 C 281.600 252.848,283.100 252.452,266.800 252.312 L 253.800 252.200 253.685 248.500 L 253.570 244.800 258.585 244.800 L 263.600 244.800 263.600 232.000 C 263.600 224.960,263.541 219.200,263.470 219.200 C 263.398 219.200,262.067 219.645,260.511 220.188 C 258.956 220.731,256.900 221.226,255.942 221.288 L 254.200 221.400 254.081 218.405 C 253.903 213.945,253.943 213.873,257.097 213.055 C 258.595 212.666,260.985 211.758,262.410 211.037 C 264.696 209.879,271.807 208.936,272.489 209.700 M296.414 210.300 C 296.491 214.163,296.248 229.643,296.052 233.400 L 295.800 238.200 292.000 238.200 L 288.200 238.200 287.849 224.522 C 287.655 217.000,287.605 210.565,287.736 210.222 C 288.116 209.231,296.394 209.305,296.414 210.300 M140.498 220.203 C 145.893 222.110,149.378 228.852,148.508 235.698 C 148.152 238.501,148.563 238.400,137.551 238.400 C 126.384 238.400,126.858 238.251,128.156 241.356 C 130.154 246.138,138.211 246.912,141.040 242.594 C 141.927 241.242,142.992 241.367,145.596 243.131 C 148.252 244.931,148.373 245.365,146.813 247.519 C 140.142 256.728,123.414 253.948,119.563 242.992 C 114.397 228.293,126.406 215.221,140.498 220.203 M209.298 220.203 C 214.693 222.110,218.178 228.852,217.308 235.698 C 216.952 238.501,217.363 238.400,206.351 238.400 C 195.184 238.400,195.658 238.251,196.956 241.356 C 198.954 246.138,207.011 246.912,209.840 242.594 C 210.727 241.242,211.792 241.367,214.396 243.131 C 217.052 244.931,217.173 245.365,215.613 247.519 C 208.942 256.728,192.214 253.948,188.363 242.992 C 183.197 228.293,195.206 215.221,209.298 220.203 M162.237 226.700 C 166.961 240.295,167.466 241.650,167.813 241.654 C 168.007 241.656,169.795 237.010,171.786 231.329 C 173.778 225.648,175.551 220.775,175.727 220.500 C 176.134 219.865,184.400 219.784,184.400 220.415 C 184.400 221.064,173.152 251.339,172.703 251.900 C 172.261 252.452,163.760 252.621,162.947 252.094 C 162.697 251.932,161.098 248.020,159.393 243.400 C 157.687 238.780,155.146 231.896,153.746 228.103 C 150.467 219.220,150.293 220.000,155.554 220.000 L 159.908 220.000 162.237 226.700 M132.800 226.405 C 130.210 226.849,128.779 228.313,127.818 231.500 L 127.546 232.400 133.773 232.400 L 140.000 232.400 140.000 231.360 C 140.000 227.889,136.838 225.713,132.800 226.405 M201.600 226.405 C 199.010 226.849,197.579 228.313,196.618 231.500 L 196.346 232.400 202.573 232.400 L 208.800 232.400 208.800 231.360 C 208.800 227.889,205.638 225.713,201.600 226.405 M293.874 242.827 C 300.259 245.246,296.964 254.319,290.413 252.357 C 287.887 251.600,287.000 250.363,287.000 247.600 C 287.000 243.725,290.264 241.459,293.874 242.827 M234.200 295.029 C 234.200 295.627,233.913 295.803,232.920 295.814 C 232.215 295.821,231.518 295.949,231.370 296.097 C 230.824 296.643,231.607 297.600,232.600 297.600 C 233.763 297.600,234.407 298.697,233.558 299.234 C 233.251 299.429,232.595 299.591,232.100 299.594 C 231.231 299.600,231.200 299.729,231.200 303.357 C 231.200 306.423,231.083 307.159,230.564 307.359 C 229.410 307.801,229.200 307.193,229.200 303.403 C 229.200 300.005,229.125 299.630,228.400 299.400 C 227.473 299.106,227.333 298.077,228.176 297.754 C 228.492 297.633,228.862 297.027,228.998 296.408 C 229.554 293.876,234.200 292.644,234.200 295.029 M126.557 294.633 C 126.691 294.981,126.800 295.977,126.800 296.847 C 126.800 298.286,126.869 298.391,127.574 298.014 C 129.056 297.221,131.075 297.514,131.971 298.654 C 132.964 299.917,133.233 306.982,132.300 307.308 C 131.084 307.732,130.800 307.103,130.800 303.990 C 130.800 300.056,130.624 299.600,129.101 299.600 C 127.340 299.600,126.827 300.553,126.813 303.851 C 126.800 306.697,126.206 308.022,125.218 307.411 C 124.756 307.126,124.614 294.720,125.067 294.267 C 125.539 293.794,126.308 293.982,126.557 294.633 M247.367 294.243 C 247.902 294.448,248.000 295.342,248.000 300.016 C 248.000 305.195,248.051 305.562,248.800 305.800 C 250.597 306.370,249.318 307.917,247.439 307.446 C 246.023 307.090,245.600 305.335,245.600 299.820 C 245.600 294.538,245.875 293.670,247.367 294.243 M252.710 299.605 C 252.811 304.573,252.887 305.051,253.672 305.649 C 254.753 306.471,254.385 307.600,253.035 307.600 C 251.164 307.600,250.800 306.390,250.800 300.178 C 250.800 294.408,250.901 293.884,251.980 294.091 C 252.497 294.190,252.618 295.109,252.710 299.605 M218.913 294.945 C 223.584 296.922,223.415 306.192,218.687 307.371 C 215.301 308.215,212.739 306.331,212.177 302.585 C 211.380 297.270,214.920 293.255,218.913 294.945 M91.290 297.069 C 93.014 300.019,93.150 300.024,94.779 297.195 C 96.096 294.909,97.180 294.197,97.806 295.210 C 97.945 295.435,97.202 297.100,96.154 298.910 C 94.594 301.603,94.218 302.635,94.081 304.600 C 93.800 308.621,92.006 308.842,91.993 304.857 C 91.986 302.899,91.722 302.131,89.996 299.056 C 88.902 297.107,88.106 295.352,88.227 295.156 C 88.836 294.171,90.035 294.920,91.290 297.069 M173.112 300.300 L 173.223 305.600 174.424 305.600 C 175.750 305.600,176.479 306.651,175.558 307.234 C 174.661 307.803,168.566 307.682,168.072 307.087 C 167.427 306.309,168.047 305.680,169.603 305.533 L 171.000 305.400 171.119 302.201 C 171.276 297.944,171.060 297.124,169.895 297.554 C 168.724 297.987,168.000 297.707,168.000 296.821 C 168.000 295.991,170.471 294.823,172.000 294.930 L 173.000 295.000 173.112 300.300 M208.088 300.100 L 208.200 305.400 209.595 305.600 C 211.277 305.841,211.764 307.043,210.325 307.404 C 207.999 307.988,203.000 307.439,203.000 306.600 C 203.000 305.964,203.308 305.775,204.500 305.676 L 206.000 305.552 206.000 301.386 L 206.000 297.220 204.931 297.626 C 202.501 298.550,202.378 296.526,204.800 295.474 C 207.941 294.109,207.963 294.139,208.088 300.100 M184.000 296.600 C 184.290 297.362,184.668 297.600,185.590 297.600 C 186.256 297.600,186.800 297.675,186.800 297.767 C 186.800 297.859,186.907 298.214,187.039 298.556 C 187.222 299.035,186.901 299.238,185.639 299.440 L 184.000 299.702 184.000 302.018 C 184.000 305.172,184.220 305.600,185.843 305.600 C 187.314 305.600,187.837 306.870,186.567 307.357 C 183.525 308.525,182.000 306.893,182.000 302.469 C 182.000 300.364,181.854 299.629,181.400 299.455 C 181.070 299.329,180.800 298.859,180.800 298.413 C 180.800 297.957,181.064 297.600,181.400 297.600 C 181.730 297.600,182.000 297.366,182.000 297.080 C 182.000 295.592,183.481 295.236,184.000 296.600 M215.172 297.434 C 213.669 299.244,214.443 304.995,216.251 305.448 C 218.918 306.118,220.209 304.356,219.925 300.435 C 219.715 297.532,219.166 296.800,217.200 296.800 C 216.317 296.800,215.481 297.061,215.172 297.434 M106.464 298.741 C 108.529 300.586,108.639 304.241,106.688 306.192 C 102.938 309.942,97.569 306.086,99.158 300.783 C 100.131 297.534,103.926 296.473,106.464 298.741 M112.000 301.604 L 112.200 305.400 113.462 305.522 C 115.345 305.705,116.000 304.512,116.000 300.898 C 116.000 297.929,116.742 296.632,117.634 298.042 C 118.063 298.719,118.124 307.193,117.700 307.218 C 117.535 307.228,116.115 307.327,114.544 307.437 C 110.564 307.717,110.000 307.019,110.000 301.813 C 110.000 297.992,110.143 297.493,111.180 297.690 C 111.671 297.784,111.842 298.601,112.000 301.604 M141.246 298.357 C 142.051 299.009,142.201 299.546,142.332 302.257 C 142.426 304.212,142.698 305.643,143.052 306.043 C 143.936 307.042,142.756 307.891,141.365 307.257 C 140.670 306.940,140.120 306.922,139.603 307.198 C 136.819 308.688,133.690 306.280,134.830 303.526 C 135.087 302.907,135.320 302.395,135.349 302.389 C 139.130 301.561,141.454 299.600,138.653 299.600 C 137.880 299.600,137.136 299.780,137.000 300.000 C 136.547 300.733,135.200 300.451,135.200 299.623 C 135.200 297.731,139.389 296.853,141.246 298.357 M146.820 300.993 C 148.255 304.794,148.454 304.863,149.424 301.895 C 150.677 298.059,152.849 295.734,152.781 298.300 C 152.747 299.616,149.718 306.902,149.050 307.276 C 147.489 308.150,143.978 302.053,143.995 298.500 C 144.007 296.203,145.514 297.533,146.820 300.993 M160.537 298.044 C 161.718 298.582,162.400 299.963,162.400 301.819 L 162.400 303.200 159.424 303.200 C 156.162 303.200,155.731 303.438,156.639 304.735 C 157.371 305.780,159.405 305.901,160.443 304.961 C 161.265 304.218,162.000 304.520,162.000 305.601 C 162.000 308.345,155.743 308.187,154.478 305.411 C 152.352 300.745,156.199 296.068,160.537 298.044 M195.694 298.767 C 198.945 301.673,196.844 307.600,192.563 307.600 C 189.290 307.600,187.288 304.355,188.358 300.783 C 189.337 297.514,193.126 296.473,195.694 298.767 M242.136 298.421 C 245.491 301.060,243.719 307.600,239.650 307.600 C 236.433 307.600,234.800 305.916,234.800 302.600 C 234.800 298.374,239.020 295.970,242.136 298.421 M262.894 298.767 C 266.145 301.673,264.044 307.600,259.763 307.600 C 256.490 307.600,254.488 304.355,255.558 300.783 C 256.537 297.514,260.326 296.473,262.894 298.767 M267.502 299.100 C 267.738 299.925,268.051 301.183,268.197 301.895 C 268.623 303.982,269.041 303.747,269.784 301.004 C 271.011 296.471,272.336 296.472,273.654 301.008 C 274.624 304.347,274.818 304.293,275.604 300.463 C 276.118 297.962,276.838 297.078,277.679 297.919 C 278.403 298.643,276.117 307.109,275.113 307.428 C 273.985 307.786,273.390 307.009,272.486 304.000 C 271.654 301.230,271.617 301.247,270.596 304.880 C 269.915 307.302,268.798 308.208,267.809 307.141 C 267.246 306.534,265.600 300.182,265.600 298.614 C 265.600 296.938,266.985 297.291,267.502 299.100 M286.585 298.855 C 287.383 299.804,287.612 300.464,287.521 301.555 L 287.400 303.000 284.400 303.200 C 281.327 303.405,280.940 303.722,282.082 305.099 C 282.577 305.695,285.047 305.771,285.400 305.200 C 285.853 304.467,287.200 304.749,287.200 305.577 C 287.200 308.256,281.198 308.304,279.819 305.637 C 277.141 300.458,282.996 294.590,286.585 298.855 M291.412 298.019 C 291.591 298.308,291.839 298.299,292.211 297.991 C 293.101 297.252,295.000 297.667,295.000 298.600 C 295.000 299.189,294.689 299.435,293.819 299.534 C 292.084 299.732,291.627 300.627,291.613 303.851 C 291.600 306.697,291.006 308.022,290.018 307.411 C 289.149 306.874,289.488 297.600,290.376 297.600 C 290.803 297.600,291.269 297.789,291.412 298.019 M101.614 300.374 C 101.048 301.431,101.091 304.531,101.680 305.120 C 103.299 306.739,105.800 305.209,105.800 302.600 C 105.800 299.837,102.765 298.223,101.614 300.374 M156.880 300.080 C 155.951 301.009,156.349 301.600,157.900 301.594 C 159.932 301.586,160.727 301.076,160.025 300.230 C 159.407 299.486,157.562 299.398,156.880 300.080 M190.880 300.080 C 190.291 300.669,190.248 303.769,190.814 304.826 C 191.416 305.952,193.758 305.880,194.577 304.711 C 196.540 301.910,193.215 297.745,190.880 300.080 M237.423 300.489 C 235.429 303.336,238.601 307.342,240.971 304.971 C 241.688 304.255,241.815 301.548,241.186 300.374 C 240.584 299.248,238.242 299.320,237.423 300.489 M258.080 300.080 C 257.491 300.669,257.448 303.769,258.014 304.826 C 258.616 305.952,260.958 305.880,261.777 304.711 C 263.740 301.910,260.415 297.745,258.080 300.080 M282.015 300.182 C 281.280 301.067,281.876 301.600,283.600 301.600 C 284.454 301.600,285.269 301.412,285.411 301.182 C 285.828 300.507,284.791 299.600,283.600 299.600 C 282.994 299.600,282.280 299.862,282.015 300.182 M137.500 303.632 C 135.915 304.555,137.315 306.441,139.012 305.667 C 140.353 305.056,140.420 303.194,139.100 303.212 C 138.605 303.219,137.885 303.408,137.500 303.632 " stroke="none" fill="#fbfbfb" fill-rule="evenodd"></path><path id="path3" d="M171.800 144.777 C 164.428 145.137,162.172 146.636,161.414 151.678 L 160.981 154.552 159.024 155.052 C 154.431 156.223,152.890 162.190,156.730 163.933 C 158.877 164.907,225.093 164.960,227.000 163.989 C 230.043 162.440,228.248 155.556,224.656 154.999 C 221.524 154.512,221.600 154.592,221.600 151.832 C 221.600 146.461,219.601 145.087,211.271 144.735 C 203.786 144.419,178.568 144.446,171.800 144.777 M95.383 227.600 C 95.383 236.950,95.436 240.775,95.500 236.100 C 95.564 231.425,95.564 223.775,95.500 219.100 C 95.436 214.425,95.383 218.250,95.383 227.600 M288.114 221.800 C 288.117 222.900,288.195 223.303,288.287 222.695 C 288.379 222.086,288.377 221.186,288.282 220.695 C 288.187 220.203,288.111 220.700,288.114 221.800 M295.720 227.200 C 295.720 228.410,295.795 228.905,295.887 228.300 C 295.978 227.695,295.978 226.705,295.887 226.100 C 295.795 225.495,295.720 225.990,295.720 227.200 M288.520 234.800 C 288.520 236.010,288.595 236.505,288.687 235.900 C 288.778 235.295,288.778 234.305,288.687 233.700 C 288.595 233.095,288.520 233.590,288.520 234.800 M290.500 237.891 C 291.325 237.978,292.675 237.978,293.500 237.891 C 294.325 237.805,293.650 237.734,292.000 237.734 C 290.350 237.734,289.675 237.805,290.500 237.891 M111.334 301.600 C 111.334 303.250,111.405 303.925,111.491 303.100 C 111.578 302.275,111.578 300.925,111.491 300.100 C 111.405 299.275,111.334 299.950,111.334 301.600 M230.397 303.282 C 230.289 305.417,230.342 307.020,230.516 306.845 C 230.691 306.670,230.779 304.923,230.714 302.964 L 230.594 299.400 230.397 303.282 M220.493 301.200 C 220.493 301.970,220.575 302.285,220.676 301.900 C 220.776 301.515,220.776 300.885,220.676 300.500 C 220.575 300.115,220.493 300.430,220.493 301.200 M157.300 302.687 C 157.905 302.778,158.895 302.778,159.500 302.687 C 160.105 302.595,159.610 302.520,158.400 302.520 C 157.190 302.520,156.695 302.595,157.300 302.687 M282.700 302.682 C 283.195 302.778,284.005 302.778,284.500 302.682 C 284.995 302.587,284.590 302.509,283.600 302.509 C 282.610 302.509,282.205 302.587,282.700 302.682 M204.100 306.276 C 204.485 306.376,205.115 306.376,205.500 306.276 C 205.885 306.175,205.570 306.093,204.800 306.093 C 204.030 306.093,203.715 306.175,204.100 306.276 " stroke="none" fill="#c46c4c" fill-rule="evenodd"></path><path id="path4" d="M170.112 144.695 C 171.164 144.777,172.784 144.776,173.712 144.692 C 174.640 144.608,173.780 144.541,171.800 144.542 C 169.820 144.543,169.060 144.612,170.112 144.695 M209.300 144.696 C 210.565 144.775,212.635 144.775,213.900 144.696 C 215.165 144.616,214.130 144.551,211.600 144.551 C 209.070 144.551,208.035 144.616,209.300 144.696 M165.800 145.200 C 165.508 145.673,165.899 145.673,167.000 145.200 C 167.771 144.869,167.769 144.855,166.924 144.828 C 166.442 144.813,165.936 144.980,165.800 145.200 M217.600 145.248 C 218.150 145.467,219.140 146.130,219.800 146.722 C 220.790 147.610,220.759 147.536,219.622 146.299 C 218.850 145.460,217.881 144.811,217.422 144.825 C 216.700 144.848,216.722 144.899,217.600 145.248 M163.040 147.040 C 162.248 147.832,161.605 148.687,161.612 148.940 C 161.619 149.193,161.802 149.096,162.019 148.724 C 162.236 148.352,163.081 147.497,163.898 146.824 C 164.714 146.151,165.179 145.600,164.931 145.600 C 164.683 145.600,163.832 146.248,163.040 147.040 M161.076 150.410 C 160.930 150.955,160.808 152.075,160.805 152.900 C 160.801 154.238,160.690 154.400,159.784 154.400 C 157.310 154.400,154.332 157.006,154.436 159.080 C 154.456 159.476,154.632 159.250,154.827 158.578 C 155.329 156.850,156.804 155.618,159.057 155.043 L 160.996 154.549 161.306 152.398 C 161.643 150.056,161.500 148.823,161.076 150.410 M221.647 151.873 C 221.595 154.583,221.497 154.479,224.600 154.997 C 225.480 155.144,226.605 155.642,227.100 156.102 C 227.595 156.563,228.000 156.725,228.000 156.464 C 228.000 155.666,225.490 154.403,223.900 154.401 C 222.484 154.400,222.397 154.327,222.353 153.100 C 222.248 150.235,221.697 149.276,221.647 151.873 M228.305 160.083 C 228.515 163.353,228.350 163.656,226.000 164.328 C 224.762 164.681,224.721 164.732,225.646 164.764 C 228.192 164.852,230.041 160.177,228.452 157.671 C 228.263 157.372,228.199 158.422,228.305 160.083 M154.440 160.926 C 154.362 163.112,156.257 164.831,158.680 164.773 C 159.535 164.752,159.345 164.624,157.876 164.229 C 155.530 163.598,155.324 163.405,154.853 161.393 C 154.537 160.041,154.474 159.971,154.440 160.926 M223.386 208.536 C 222.923 211.004,223.428 245.670,223.950 247.288 C 225.092 250.823,228.100 252.780,232.400 252.786 C 237.108 252.792,237.298 252.613,236.802 248.620 C 236.412 245.474,236.447 245.524,234.561 245.374 C 232.113 245.180,232.210 245.943,232.085 225.780 L 231.970 207.200 227.803 207.200 L 223.636 207.200 223.386 208.536 M231.688 225.986 C 231.812 246.386,231.705 245.618,234.452 245.757 C 235.868 245.828,237.389 250.701,236.338 251.800 C 235.420 252.761,229.100 252.235,227.330 251.050 C 224.128 248.908,224.214 249.544,224.089 227.300 L 223.978 207.600 227.777 207.600 L 231.577 207.600 231.688 225.986 M87.043 210.233 C 86.487 211.682,86.777 251.483,87.348 251.956 C 87.738 252.281,91.727 252.381,101.248 252.305 L 114.600 252.200 114.715 248.507 L 114.830 244.815 105.515 244.707 L 96.200 244.600 96.096 227.100 L 95.992 209.600 91.639 209.600 C 88.038 209.600,87.244 209.709,87.043 210.233 M262.410 211.037 C 260.985 211.758,258.595 212.666,257.097 213.055 C 253.943 213.873,253.903 213.945,254.081 218.405 L 254.200 221.400 255.942 221.288 C 256.900 221.226,258.956 220.731,260.511 220.188 C 262.067 219.645,263.398 219.200,263.470 219.200 C 263.541 219.200,263.600 224.960,263.600 232.000 L 263.600 244.800 258.585 244.800 L 253.570 244.800 253.685 248.500 L 253.800 252.200 266.800 252.312 C 283.100 252.452,281.600 252.848,281.600 248.406 L 281.600 244.827 277.300 244.714 L 273.000 244.600 272.789 227.200 C 272.673 217.630,272.538 209.755,272.489 209.700 C 271.807 208.936,264.696 209.879,262.410 211.037 M287.736 210.222 C 287.605 210.565,287.655 217.000,287.849 224.522 L 288.200 238.200 292.000 238.200 L 295.800 238.200 296.052 233.400 C 296.248 229.643,296.491 214.163,296.414 210.300 C 296.394 209.305,288.116 209.231,287.736 210.222 M95.289 210.100 C 95.338 210.155,95.473 218.030,95.589 227.600 L 95.800 245.000 105.116 245.107 L 114.432 245.215 114.316 248.507 L 114.200 251.800 100.800 251.800 L 87.400 251.800 87.296 231.400 C 87.239 220.180,87.278 210.775,87.383 210.500 C 87.546 210.074,94.933 209.701,95.289 210.100 M272.096 227.500 L 272.200 245.000 276.600 245.200 L 281.000 245.400 281.000 248.600 L 281.000 251.800 267.600 251.800 L 254.200 251.800 254.200 248.600 L 254.200 245.400 259.100 245.288 L 264.000 245.175 264.000 231.988 C 264.000 221.703,263.890 218.801,263.500 218.803 C 263.225 218.804,261.678 219.254,260.062 219.803 C 258.446 220.351,256.503 220.800,255.746 220.800 L 254.368 220.800 254.484 217.514 L 254.600 214.228 256.000 213.865 C 258.787 213.143,262.227 211.860,263.797 210.956 C 265.106 210.203,266.004 210.031,268.696 210.017 L 271.992 210.000 272.096 227.500 M295.880 223.666 C 295.599 239.152,295.922 237.985,291.914 237.994 C 288.340 238.002,288.535 238.773,288.193 223.300 L 287.899 210.000 292.013 210.000 L 296.128 210.000 295.880 223.666 M129.610 219.816 C 114.958 223.924,114.435 247.560,128.896 252.061 C 135.787 254.205,143.360 252.286,146.813 247.519 C 148.373 245.365,148.252 244.931,145.596 243.131 C 142.992 241.367,141.927 241.242,141.040 242.594 C 138.211 246.912,130.154 246.138,128.156 241.356 C 126.858 238.251,126.384 238.400,137.551 238.400 C 148.563 238.400,148.152 238.501,148.508 235.698 C 149.935 224.468,140.699 216.706,129.610 219.816 M198.410 219.816 C 183.758 223.924,183.235 247.560,197.696 252.061 C 204.587 254.205,212.160 252.286,215.613 247.519 C 217.173 245.365,217.052 244.931,214.396 243.131 C 211.792 241.367,210.727 241.242,209.840 242.594 C 207.011 246.912,198.954 246.138,196.956 241.356 C 195.658 238.251,195.184 238.400,206.351 238.400 C 217.363 238.400,216.952 238.501,217.308 235.698 C 218.735 224.468,209.499 216.706,198.410 219.816 M141.037 221.008 C 145.842 223.112,148.000 227.094,148.000 233.853 L 148.000 237.586 137.700 237.693 L 127.400 237.800 127.269 238.943 C 126.545 245.274,137.313 248.543,141.268 243.193 C 142.407 241.653,143.593 241.996,147.511 245.004 C 147.881 245.287,146.642 247.244,145.179 248.687 C 138.918 254.862,125.001 253.051,121.182 245.564 C 117.756 238.849,118.544 229.337,122.924 224.542 C 127.143 219.922,135.040 218.382,141.037 221.008 M209.837 221.008 C 214.642 223.112,216.800 227.094,216.800 233.853 L 216.800 237.586 206.500 237.693 L 196.200 237.800 196.069 238.943 C 195.345 245.274,206.113 248.543,210.068 243.193 C 211.207 241.653,212.393 241.996,216.311 245.004 C 216.681 245.287,215.442 247.244,213.979 248.687 C 207.718 254.862,193.801 253.051,189.982 245.564 C 186.556 238.849,187.344 229.337,191.724 224.542 C 195.943 219.922,203.840 218.382,209.837 221.008 M151.200 220.603 C 151.200 220.935,152.346 224.310,153.746 228.103 C 155.146 231.896,157.687 238.780,159.393 243.400 C 161.098 248.020,162.697 251.932,162.947 252.094 C 163.760 252.621,172.261 252.452,172.703 251.900 C 173.152 251.339,184.400 221.064,184.400 220.415 C 184.400 219.784,176.134 219.865,175.727 220.500 C 175.551 220.775,173.778 225.648,171.786 231.329 C 169.795 237.010,168.007 241.656,167.813 241.654 C 167.466 241.650,166.961 240.295,162.237 226.700 L 159.908 220.000 155.554 220.000 C 151.941 220.000,151.200 220.103,151.200 220.603 M160.118 222.100 C 160.463 223.035,161.019 224.610,161.355 225.600 C 161.690 226.590,162.883 230.010,164.004 233.200 C 165.126 236.390,166.331 239.855,166.683 240.900 C 167.768 244.128,168.092 243.674,171.038 234.800 C 171.585 233.150,172.195 231.440,172.393 231.000 C 172.727 230.255,175.400 222.665,175.879 221.100 C 176.064 220.494,176.632 220.400,180.089 220.400 C 183.737 220.400,184.061 220.461,183.801 221.100 C 183.252 222.447,181.126 228.209,180.811 229.200 C 180.504 230.169,179.462 232.969,178.802 234.600 C 178.624 235.040,178.100 236.435,177.639 237.700 C 177.178 238.965,176.422 241.035,175.961 242.300 C 175.500 243.565,174.978 244.960,174.801 245.400 C 174.625 245.840,174.264 246.830,174.000 247.600 C 173.736 248.370,173.374 249.360,173.196 249.800 C 173.018 250.240,172.770 250.921,172.644 251.313 C 172.439 251.952,171.930 252.014,167.737 251.913 L 163.058 251.800 162.368 250.000 C 161.989 249.010,161.283 247.120,160.800 245.800 C 160.317 244.480,159.777 243.040,159.600 242.600 C 159.290 241.829,158.442 239.526,156.840 235.100 C 156.422 233.945,155.504 231.470,154.800 229.600 C 152.841 224.395,152.079 222.285,151.800 221.300 C 151.549 220.410,151.590 220.400,155.519 220.400 L 159.491 220.400 160.118 222.100 M131.536 226.138 C 129.376 227.098,127.200 230.032,127.200 231.984 C 127.200 232.904,140.047 233.295,140.605 232.392 C 140.863 231.974,140.280 229.689,139.513 228.116 C 138.557 226.156,134.024 225.032,131.536 226.138 M200.336 226.138 C 198.176 227.098,196.000 230.032,196.000 231.984 C 196.000 232.904,208.847 233.295,209.405 232.392 C 209.663 231.974,209.080 229.689,208.313 228.116 C 207.357 226.156,202.824 225.032,200.336 226.138 M137.848 227.116 C 138.860 227.661,140.000 229.909,140.000 231.360 L 140.000 232.400 133.773 232.400 L 127.546 232.400 127.818 231.500 C 129.252 226.744,133.614 224.838,137.848 227.116 M206.648 227.116 C 207.660 227.661,208.800 229.909,208.800 231.360 L 208.800 232.400 202.573 232.400 L 196.346 232.400 196.618 231.500 C 198.052 226.744,202.414 224.838,206.648 227.116 M290.178 242.827 C 285.594 244.159,285.762 250.963,290.413 252.357 C 296.964 254.319,300.259 245.246,293.874 242.827 C 292.574 242.334,291.875 242.334,290.178 242.827 M295.569 244.431 C 298.563 247.425,296.484 252.000,292.129 252.000 C 289.166 252.000,287.200 250.245,287.200 247.600 C 287.200 243.595,292.665 241.526,295.569 244.431 M231.400 293.919 C 230.219 294.160,229.278 295.135,228.998 296.408 C 228.862 297.027,228.492 297.633,228.176 297.754 C 227.333 298.077,227.473 299.106,228.400 299.400 C 229.125 299.630,229.200 300.005,229.200 303.403 C 229.200 307.193,229.410 307.801,230.564 307.359 C 231.083 307.159,231.200 306.423,231.200 303.357 C 231.200 299.729,231.231 299.600,232.100 299.594 C 232.595 299.591,233.251 299.429,233.558 299.234 C 234.407 298.697,233.763 297.600,232.600 297.600 C 231.607 297.600,230.824 296.643,231.370 296.097 C 231.518 295.949,232.215 295.821,232.920 295.814 C 233.913 295.803,234.200 295.627,234.200 295.029 C 234.200 294.196,232.789 293.636,231.400 293.919 M125.067 294.267 C 124.614 294.720,124.756 307.126,125.218 307.411 C 126.206 308.022,126.800 306.697,126.813 303.851 C 126.827 300.553,127.340 299.600,129.101 299.600 C 130.624 299.600,130.800 300.056,130.800 303.990 C 130.800 307.103,131.084 307.732,132.300 307.308 C 133.233 306.982,132.964 299.917,131.971 298.654 C 131.075 297.514,129.056 297.221,127.574 298.014 C 126.869 298.391,126.800 298.286,126.800 296.847 C 126.800 294.408,126.047 293.287,125.067 294.267 M246.080 294.480 C 244.577 295.983,245.734 307.018,247.439 307.446 C 249.318 307.917,250.597 306.370,248.800 305.800 C 248.051 305.562,248.000 305.195,248.000 300.016 C 248.000 295.342,247.902 294.448,247.367 294.243 C 246.562 293.934,246.641 293.919,246.080 294.480 M251.080 294.253 C 250.926 294.407,250.800 297.073,250.800 300.178 C 250.800 306.390,251.164 307.600,253.035 307.600 C 254.385 307.600,254.753 306.471,253.672 305.649 C 252.887 305.051,252.811 304.573,252.710 299.605 C 252.601 294.272,252.242 293.091,251.080 294.253 M126.320 296.932 C 126.431 299.030,126.905 299.885,127.300 298.700 C 127.523 298.030,131.005 298.045,131.680 298.719 C 132.033 299.072,132.200 300.449,132.200 303.015 C 132.200 307.722,131.448 308.139,131.283 303.523 C 131.147 299.728,130.846 299.200,128.819 299.200 C 126.896 299.200,126.442 300.065,126.305 304.000 C 126.110 309.577,125.404 307.258,125.290 300.663 C 125.203 295.666,125.287 294.362,125.690 294.495 C 126.003 294.598,126.246 295.538,126.320 296.932 M215.600 294.849 C 210.833 296.750,210.918 306.175,215.713 307.371 C 219.167 308.231,221.658 306.339,222.193 302.450 C 222.910 297.234,219.495 293.296,215.600 294.849 M234.000 294.800 C 234.000 295.020,233.400 295.200,232.668 295.200 C 230.875 295.200,229.764 296.945,230.987 297.840 C 231.408 298.148,232.179 298.400,232.700 298.400 C 233.230 298.400,233.538 298.576,233.400 298.800 C 233.264 299.020,232.630 299.200,231.991 299.200 L 230.829 299.200 230.714 303.100 C 230.567 308.121,229.839 308.082,229.686 303.045 C 229.580 299.557,229.508 299.267,228.686 299.028 L 227.800 298.769 228.700 298.136 C 229.195 297.787,229.600 297.134,229.600 296.683 C 229.600 295.328,230.764 294.400,232.462 294.400 C 233.308 294.400,234.000 294.580,234.000 294.800 M247.200 299.800 C 247.200 304.667,247.279 305.279,248.000 306.000 C 248.440 306.440,248.800 306.890,248.800 307.000 C 248.800 307.399,247.348 307.188,246.880 306.720 C 246.271 306.111,246.195 294.400,246.800 294.400 C 247.047 294.400,247.200 296.467,247.200 299.800 M252.400 300.220 C 252.400 305.160,252.465 305.634,253.200 306.093 C 254.175 306.701,254.234 307.200,253.331 307.200 C 251.519 307.200,251.200 306.184,251.200 300.405 C 251.200 297.395,251.315 294.818,251.456 294.678 C 252.168 293.965,252.400 295.325,252.400 300.220 M88.227 295.156 C 88.106 295.352,88.902 297.107,89.996 299.056 C 91.722 302.131,91.986 302.899,91.993 304.857 C 92.006 308.842,93.800 308.621,94.081 304.600 C 94.218 302.635,94.594 301.603,96.154 298.910 C 97.202 297.100,97.945 295.435,97.806 295.210 C 97.180 294.197,96.096 294.909,94.779 297.195 C 93.150 300.024,93.014 300.019,91.290 297.069 C 90.035 294.920,88.836 294.171,88.227 295.156 M169.500 295.484 C 167.230 296.429,167.607 298.400,169.895 297.554 C 171.060 297.124,171.276 297.944,171.119 302.201 L 171.000 305.400 169.603 305.533 C 168.047 305.680,167.427 306.309,168.072 307.087 C 168.566 307.682,174.661 307.803,175.558 307.234 C 176.479 306.651,175.750 305.600,174.424 305.600 L 173.223 305.600 173.112 300.300 L 173.000 295.000 172.000 294.930 C 171.450 294.892,170.325 295.141,169.500 295.484 M204.800 295.474 C 202.378 296.526,202.501 298.550,204.931 297.626 L 206.000 297.220 206.000 301.386 L 206.000 305.552 204.500 305.676 C 203.308 305.775,203.000 305.964,203.000 306.600 C 203.000 307.439,207.999 307.988,210.325 307.404 C 211.764 307.043,211.277 305.841,209.595 305.600 L 208.200 305.400 208.088 300.100 C 207.963 294.139,207.941 294.109,204.800 295.474 M90.989 297.514 C 93.121 301.130,93.255 301.123,95.254 297.278 C 96.243 295.375,96.602 295.030,97.207 295.404 C 97.459 295.560,97.306 296.090,96.807 296.790 C 96.363 297.413,96.000 298.023,96.000 298.144 C 96.000 298.266,95.469 299.265,94.820 300.365 C 93.978 301.795,93.607 303.000,93.520 304.587 C 93.358 307.586,92.651 307.412,92.385 304.308 C 92.253 302.765,91.829 301.223,91.285 300.300 C 88.655 295.841,88.307 294.969,89.289 295.296 C 89.558 295.386,90.323 296.384,90.989 297.514 M172.712 300.705 C 172.815 305.590,172.882 306.000,173.579 306.000 C 174.700 306.000,175.626 306.434,175.374 306.842 C 175.073 307.330,168.508 307.299,168.205 306.808 C 168.069 306.589,168.679 306.301,169.587 306.156 C 171.561 305.840,171.678 305.504,171.518 300.600 L 171.400 297.000 169.900 297.117 C 169.075 297.182,168.400 297.071,168.400 296.872 C 168.400 296.424,171.177 295.242,172.000 295.339 C 172.493 295.397,172.620 296.353,172.712 300.705 M207.606 300.100 C 207.613 305.430,207.723 305.850,209.169 306.060 C 211.913 306.457,210.356 307.228,207.036 307.116 C 203.609 307.000,202.264 306.316,204.992 306.076 L 206.400 305.952 206.400 301.329 C 206.400 296.307,206.483 296.457,204.140 297.245 C 203.440 297.481,203.315 296.727,204.000 296.407 C 204.330 296.252,204.960 295.928,205.400 295.687 C 207.467 294.551,207.600 294.815,207.606 300.100 M219.606 295.713 C 222.412 297.972,222.356 304.584,219.513 306.576 C 214.471 310.107,209.692 299.842,214.547 295.909 C 215.546 295.099,218.692 294.977,219.606 295.713 M182.480 296.080 C 182.216 296.344,182.000 296.794,182.000 297.080 C 182.000 297.366,181.730 297.600,181.400 297.600 C 181.064 297.600,180.800 297.957,180.800 298.413 C 180.800 298.859,181.070 299.329,181.400 299.455 C 181.854 299.629,182.000 300.364,182.000 302.469 C 182.000 306.893,183.525 308.525,186.567 307.357 C 187.837 306.870,187.314 305.600,185.843 305.600 C 184.220 305.600,184.000 305.172,184.000 302.018 L 184.000 299.702 185.639 299.440 C 186.901 299.238,187.222 299.035,187.039 298.556 C 186.907 298.214,186.800 297.859,186.800 297.767 C 186.800 297.675,186.256 297.600,185.590 297.600 C 184.668 297.600,184.290 297.362,184.000 296.600 C 183.579 295.492,183.198 295.362,182.480 296.080 M183.600 296.720 C 183.600 297.728,184.384 298.400,185.560 298.400 C 186.805 298.400,186.211 299.077,184.800 299.266 C 182.906 299.520,183.356 306.057,185.277 306.198 C 186.799 306.310,186.602 307.200,185.056 307.200 C 182.980 307.200,182.400 306.132,182.400 302.311 C 182.400 299.812,182.282 299.200,181.800 299.200 C 181.470 299.200,181.200 299.039,181.200 298.843 C 181.200 298.646,181.470 298.382,181.800 298.255 C 182.130 298.129,182.400 297.689,182.400 297.279 C 182.400 296.869,182.520 296.413,182.667 296.267 C 183.156 295.777,183.600 295.992,183.600 296.720 M215.446 296.597 C 213.514 298.059,213.429 304.074,215.321 305.400 C 218.085 307.336,220.200 305.545,220.200 301.268 C 220.200 296.777,218.027 294.642,215.446 296.597 M219.228 297.434 C 220.731 299.244,219.957 304.995,218.149 305.448 C 215.482 306.118,214.191 304.356,214.475 300.435 C 214.685 297.532,215.234 296.800,217.200 296.800 C 218.083 296.800,218.919 297.061,219.228 297.434 M100.664 298.421 C 100.089 298.873,99.412 299.936,99.158 300.783 C 97.569 306.086,102.938 309.942,106.688 306.192 C 110.802 302.078,105.201 294.852,100.664 298.421 M110.280 297.853 C 110.126 298.007,110.000 299.789,110.000 301.813 C 110.000 307.019,110.564 307.717,114.544 307.437 C 116.115 307.327,117.535 307.228,117.700 307.218 C 118.124 307.193,118.063 298.719,117.634 298.042 C 116.742 296.632,116.000 297.929,116.000 300.898 C 116.000 304.512,115.345 305.705,113.462 305.522 L 112.200 305.400 112.000 301.604 C 111.805 297.911,111.308 296.825,110.280 297.853 M136.089 298.223 C 134.970 299.006,134.898 300.400,135.976 300.400 C 136.403 300.400,136.864 300.220,137.000 300.000 C 137.136 299.780,137.880 299.600,138.653 299.600 C 141.454 299.600,139.130 301.561,135.349 302.389 C 135.320 302.395,135.087 302.907,134.830 303.526 C 133.690 306.280,136.819 308.688,139.603 307.198 C 140.120 306.922,140.670 306.940,141.365 307.257 C 142.756 307.891,143.936 307.042,143.052 306.043 C 142.698 305.643,142.426 304.212,142.332 302.257 C 142.123 297.935,139.198 296.045,136.089 298.223 M143.995 298.500 C 143.978 302.053,147.489 308.150,149.050 307.276 C 149.718 306.902,152.747 299.616,152.781 298.300 C 152.849 295.734,150.677 298.059,149.424 301.895 C 148.454 304.863,148.255 304.794,146.820 300.993 C 145.514 297.533,144.007 296.203,143.995 298.500 M156.168 298.058 C 153.307 299.446,153.232 305.569,156.058 307.030 C 158.387 308.234,162.000 307.365,162.000 305.601 C 162.000 304.520,161.265 304.218,160.443 304.961 C 159.405 305.901,157.371 305.780,156.639 304.735 C 155.731 303.438,156.162 303.200,159.424 303.200 L 162.400 303.200 162.400 301.819 C 162.400 298.376,159.330 296.523,156.168 298.058 M189.864 298.421 C 186.341 301.192,188.226 307.600,192.563 307.600 C 195.601 307.600,197.000 306.023,197.000 302.600 C 197.000 298.248,193.035 295.927,189.864 298.421 M236.968 298.058 C 234.030 299.483,234.112 305.811,237.085 307.166 C 241.191 309.037,244.858 305.473,243.607 300.827 C 242.861 298.054,239.696 296.734,236.968 298.058 M257.064 298.421 C 253.541 301.192,255.426 307.600,259.763 307.600 C 262.801 307.600,264.200 306.023,264.200 302.600 C 264.200 298.248,260.235 295.927,257.064 298.421 M265.600 298.614 C 265.600 300.182,267.246 306.534,267.809 307.141 C 268.798 308.208,269.915 307.302,270.596 304.880 C 271.617 301.247,271.654 301.230,272.486 304.000 C 273.390 307.009,273.985 307.786,275.113 307.428 C 276.117 307.109,278.403 298.643,277.679 297.919 C 276.838 297.078,276.129 297.969,275.499 300.661 C 275.147 302.167,274.734 303.805,274.583 304.300 C 274.431 304.795,274.471 305.200,274.671 305.200 C 274.871 305.200,275.266 304.075,275.547 302.700 C 276.171 299.656,276.651 298.400,277.191 298.400 C 277.696 298.400,277.709 298.885,277.238 300.081 C 277.039 300.587,276.649 302.080,276.372 303.400 C 275.640 306.886,274.389 308.501,273.816 306.700 C 273.728 306.425,273.259 304.895,272.773 303.300 C 271.731 299.882,271.546 299.786,270.845 302.300 C 268.838 309.494,268.053 309.048,266.184 299.653 C 265.667 297.056,266.925 298.539,267.517 301.225 C 268.289 304.725,268.316 304.800,268.800 304.800 C 269.034 304.800,269.288 304.575,269.365 304.300 C 269.443 304.025,269.726 302.990,269.994 302.000 C 270.922 298.585,272.084 297.184,272.565 298.900 C 272.643 299.175,272.928 300.210,273.200 301.200 C 273.991 304.081,274.008 304.125,274.238 303.896 C 274.358 303.775,274.073 302.390,273.605 300.817 C 272.312 296.475,270.992 296.540,269.784 301.004 C 269.041 303.747,268.623 303.982,268.197 301.895 C 267.365 297.831,265.600 295.601,265.600 298.614 M281.368 298.058 C 278.453 299.472,278.509 306.101,281.445 307.217 C 283.964 308.175,287.200 307.252,287.200 305.577 C 287.200 304.749,285.853 304.467,285.400 305.200 C 285.047 305.771,282.577 305.695,282.082 305.099 C 280.940 303.722,281.327 303.405,284.400 303.200 L 287.400 303.000 287.521 301.555 C 287.775 298.516,284.390 296.592,281.368 298.058 M289.600 302.376 C 289.600 307.205,289.874 308.134,291.018 307.185 C 291.425 306.847,291.604 305.847,291.613 303.851 C 291.627 300.627,292.084 299.732,293.819 299.534 C 294.689 299.435,295.000 299.189,295.000 298.600 C 295.000 297.667,293.101 297.252,292.211 297.991 C 291.839 298.299,291.591 298.308,291.412 298.019 C 290.232 296.109,289.600 297.628,289.600 302.376 M106.214 298.811 C 107.943 300.247,107.885 304.603,106.115 306.243 C 102.524 309.572,97.380 304.389,100.004 300.086 C 101.240 298.058,104.500 297.389,106.214 298.811 M140.711 298.623 C 141.490 299.168,141.600 299.602,141.600 302.134 C 141.600 304.135,141.797 305.303,142.241 305.937 C 143.101 307.165,142.634 307.510,141.233 306.683 C 140.225 306.088,140.033 306.079,139.596 306.604 C 138.261 308.213,135.200 306.808,135.200 304.587 C 135.200 303.045,135.631 302.643,138.000 301.976 C 140.120 301.379,141.006 300.530,140.344 299.733 C 139.796 299.073,137.128 299.032,136.487 299.673 C 135.930 300.230,135.393 299.859,135.801 299.199 C 136.538 298.005,139.358 297.675,140.711 298.623 M161.106 298.935 C 161.434 299.263,161.725 300.222,161.751 301.066 L 161.800 302.600 158.800 302.800 C 155.885 302.994,155.803 303.028,155.903 304.000 C 156.117 306.063,158.360 306.969,160.227 305.746 C 161.545 304.882,162.066 305.453,160.856 306.434 C 157.150 309.439,152.354 303.894,155.072 299.746 C 156.246 297.954,159.666 297.494,161.106 298.935 M194.555 298.383 C 196.447 299.102,197.455 302.771,196.353 304.926 C 194.204 309.129,188.800 307.490,188.800 302.634 C 188.800 298.886,191.205 297.109,194.555 298.383 M242.299 299.398 C 243.725 301.054,243.586 304.476,242.031 306.031 C 238.365 309.696,232.964 304.185,235.872 299.746 C 237.223 297.685,240.665 297.498,242.299 299.398 M261.755 298.383 C 263.647 299.102,264.655 302.771,263.553 304.926 C 261.404 309.129,256.000 307.490,256.000 302.634 C 256.000 298.886,258.405 297.109,261.755 298.383 M286.479 299.272 C 288.162 301.427,287.355 302.576,284.004 302.800 C 280.546 303.031,279.993 303.690,281.830 305.393 C 283.094 306.564,284.036 306.657,285.427 305.746 C 286.745 304.882,287.266 305.453,286.056 306.434 C 282.379 309.415,277.309 303.124,280.393 299.408 C 281.786 297.730,285.215 297.654,286.479 299.272 M294.165 298.242 C 295.097 298.599,294.519 299.200,293.244 299.200 C 291.736 299.200,291.233 300.328,291.105 304.000 C 290.945 308.583,290.217 307.655,290.086 302.700 C 289.978 298.594,290.530 296.914,291.336 298.900 C 291.481 299.256,291.634 299.273,291.870 298.960 C 292.051 298.718,292.470 298.417,292.800 298.292 C 293.130 298.166,293.430 298.049,293.467 298.032 C 293.504 298.014,293.818 298.109,294.165 298.242 M111.515 301.884 C 111.758 308.652,116.379 307.909,116.394 301.100 C 116.399 298.969,116.527 298.400,117.000 298.400 C 117.495 298.400,117.600 299.126,117.600 302.533 C 117.600 307.021,117.491 307.388,116.367 306.686 C 115.793 306.328,115.506 306.334,115.130 306.710 C 112.839 309.001,110.400 306.517,110.400 301.891 C 110.400 297.124,111.345 297.118,111.515 301.884 M145.946 299.900 C 146.225 300.725,146.599 301.760,146.777 302.200 C 146.955 302.640,147.299 303.495,147.542 304.100 C 148.297 305.983,148.376 305.889,150.397 300.700 C 150.890 299.435,151.452 298.400,151.646 298.400 C 152.109 298.400,152.100 299.822,151.632 300.705 C 151.430 301.087,150.860 302.480,150.367 303.800 C 148.612 308.491,147.913 308.428,145.982 303.400 C 144.203 298.771,144.124 298.400,144.920 298.400 C 145.205 298.400,145.667 299.075,145.946 299.900 M101.296 299.995 C 100.171 301.796,100.718 305.121,102.274 305.940 C 105.179 307.469,107.837 303.030,105.777 300.089 C 104.930 298.880,102.031 298.819,101.296 299.995 M156.416 299.781 C 155.350 301.065,156.072 301.800,158.400 301.800 C 160.189 301.800,160.614 301.669,160.728 301.081 C 160.947 299.942,160.029 299.200,158.400 299.200 C 157.574 299.200,156.681 299.461,156.416 299.781 M190.960 299.506 C 187.871 301.569,190.498 307.577,193.826 306.061 C 195.568 305.267,196.155 301.433,194.787 299.784 C 194.284 299.178,191.730 298.992,190.960 299.506 M237.229 299.765 C 235.846 301.431,236.421 305.262,238.174 306.061 C 240.914 307.309,243.350 303.788,241.778 300.852 C 240.888 299.191,238.233 298.556,237.229 299.765 M258.160 299.506 C 255.071 301.569,257.698 307.577,261.026 306.061 C 262.768 305.267,263.355 301.433,261.987 299.784 C 261.484 299.178,258.930 298.992,258.160 299.506 M281.341 300.234 C 280.494 301.526,281.036 301.988,283.400 301.988 C 285.677 301.988,286.277 301.526,285.686 300.229 C 285.005 298.734,282.321 298.738,281.341 300.234 M105.251 300.261 C 107.387 302.835,104.001 307.441,101.680 305.120 C 101.091 304.531,101.048 301.431,101.614 300.374 C 102.139 299.392,104.470 299.320,105.251 300.261 M160.025 300.230 C 160.459 300.753,160.450 300.923,159.974 301.224 C 159.074 301.794,156.400 301.686,156.400 301.080 C 156.400 299.654,159.035 299.037,160.025 300.230 M194.577 300.489 C 196.066 302.615,194.906 305.600,192.591 305.600 C 190.942 305.600,190.400 304.785,190.400 302.306 C 190.400 299.562,193.104 298.385,194.577 300.489 M241.186 300.374 C 241.815 301.548,241.688 304.255,240.971 304.971 C 239.345 306.598,236.800 305.151,236.800 302.600 C 236.800 299.967,240.078 298.303,241.186 300.374 M261.777 300.489 C 263.266 302.615,262.106 305.600,259.791 305.600 C 258.142 305.600,257.600 304.785,257.600 302.306 C 257.600 299.562,260.304 298.385,261.777 300.489 M285.185 300.182 C 285.920 301.067,285.324 301.600,283.600 301.600 C 282.746 301.600,281.931 301.412,281.789 301.182 C 281.372 300.507,282.409 299.600,283.600 299.600 C 284.206 299.600,284.920 299.862,285.185 300.182 M137.760 302.971 C 136.228 303.638,135.880 304.450,136.653 305.554 C 137.880 307.306,140.800 305.752,140.800 303.346 C 140.800 302.237,139.745 302.107,137.760 302.971 M140.000 304.209 C 140.000 305.498,138.352 306.390,137.412 305.610 C 136.172 304.581,137.117 303.239,139.100 303.212 C 139.799 303.203,140.000 303.426,140.000 304.209 " stroke="none" fill="#9e9e9e" fill-rule="evenodd"></path></g></svg>